Coordinates
version=1
nRows=13
nColumns=34
inDegrees=yes

Units are S.I. units (second, meters, Newtons, ...)
If the header above contains a line with 'inDegrees', this indicates whether rotational values are in degrees (yes) or radians (no).

endheader
time	pelvis_tilt	pelvis_list	pelvis_rotation	pelvis_tx	pelvis_ty	pelvis_tz	hip_flexion_r	hip_adduction_r	hip_rotation_r	knee_angle_r	ankle_angle_r	subtalar_angle_r	mtp_angle_r	hip_flexion_l	hip_adduction_l	hip_rotation_l	knee_angle_l	ankle_angle_l	subtalar_angle_l	mtp_angle_l	lumbar_extension	lumbar_bending	lumbar_rotation	arm_flex_r	arm_add_r	arm_rot_r	elbow_flex_r	pro_sup_r	arm_flex_l	arm_add_l	arm_rot_l	elbow_flex_l	pro_sup_l
      3.40000000	    -21.22993553	      8.39771590	     -1.22451903	     -5.84548166	      0.82199571	     -1.03329229	     48.11293491	      3.09709385	     -0.58402341	    116.80116415	      6.33504466	    -25.88742860	      0.00000000	     25.40669354	      4.12081871	     -9.20513967	     56.29367509	     41.53232641	    -10.80152751	      0.00000000	    -27.40941078	    -10.70805482	    -20.08402114	     -8.86260724	     -7.17373675	     -5.37652009	     10.30926480	    106.05930221	     39.95654730	     -9.05084769	      0.15898163	     50.30080313	    111.31149694
      3.41666670	    -21.77450505	      8.03377484	     -0.12867965	     -5.82692781	      0.82197851	     -1.03115122	     57.83733302	      3.37387635	      0.89517568	    120.88273410	     11.86024452	    -23.75632345	      0.00000000	     21.79459181	      4.14281721	     -8.03196118	     50.81708832	     41.45714635	     -8.50211301	      0.00000000	    -28.25165931	    -10.28141893	    -21.29319525	    -15.92365209	     -8.93543030	     -3.58800882	     12.33940391	    105.79984533	     49.67009535	     -7.49720257	      3.23298692	     59.01313665	    112.76665004
      3.43333330	    -21.84331181	      7.28387627	      0.37114079	     -5.80253319	      0.82135072	     -1.02871224	     67.58927653	      3.84497599	      2.24018298	    122.67162890	     23.37740873	    -18.18921922	      0.00000000	     17.06755885	      3.76797509	     -7.12898424	     44.55587088	     41.84591529	     -6.00864834	      0.00000000	    -29.31137926	     -8.92309864	    -21.34676429	    -24.58457736	    -10.41503298	     -1.99007896	     15.21461133	    105.41457547	     58.56319165	     -5.14848554	      7.11669503	     68.60340120	    113.84137224
      3.45000000	    -21.21850990	      6.04052028	     -0.11871146	     -5.77132870	      0.82288526	     -1.02329701	     75.83041310	      5.21935706	      2.70205875	    120.87558484	     31.06131914	    -13.21797912	      0.00000000	     10.37073046	      2.72930149	     -6.84168714	     36.60290736	     41.47318414	     -3.90992483	      0.00000000	    -29.92997617	     -6.97686651	    -20.72555432	    -32.69047524	    -11.27904195	     -1.51116018	     16.07869922	    104.98724864	     66.49524132	     -3.45016131	     10.74227793	     78.16443889	    114.37446848
      3.46666670	    -21.28069533	      4.10546736	     -1.77331800	     -5.73868391	      0.82657750	     -1.01471671	     82.01007354	      7.93292139	      1.93900182	    115.27200830	     28.80938516	    -13.14992991	      0.00000000	      3.39979790	      0.90735454	     -7.82755217	     27.01883886	     39.42669745	     -2.41116027	      0.00000000	    -29.36703266	     -4.71499484	    -18.55841407	    -39.76679673	    -11.68523539	     -3.49392284	     13.81791297	    104.21890125	     74.41050806	     -1.98182814	     14.46341413	     86.82284306	    114.48019442
      3.48333330	    -22.38161419	      1.45089074	     -3.74247397	     -5.70640936	      0.83233122	     -1.00565349	     85.53670630	     10.91639112	      0.27425676	    107.16083775	     23.28398645	    -16.24540227	      0.00000000	     -2.62607897	     -1.58337355	     -9.24816353	     17.62869990	     35.96746107	     -2.45130707	      0.00000000	    -28.06989802	     -1.73137403	    -14.55298224	    -43.65888222	    -11.55665019	     -5.26314947	     12.59501219	    103.81264107	     80.99574092	     -0.05699218	     17.77622228	     93.47204823	    114.25397514
      3.50000000	    -24.72350993	     -1.60908534	     -5.06583133	     -5.67180269	      0.83751540	     -0.99855698	     87.75692834	     12.84003215	     -1.99796579	     98.56327981	     18.09590306	    -19.68874605	      0.00000000	     -6.85567639	     -4.63091832	    -11.75546418	      9.51917369	     31.45215818	     -0.62617852	      0.00000000	    -26.21019425	      2.48274382	     -9.44131096	    -46.09705011	     -9.93687684	    -13.27368890	     14.95294999	    101.72845966	     84.32752981	      1.91368106	     20.15975576	    100.38804295	    112.34765141
      3.51666670	    -27.23597360	     -4.08333900	     -5.14846672	     -5.63456463	      0.84303841	     -0.99472590	     88.47268031	     12.72855373	     -3.85719606	     89.62456882	     14.28995332	    -22.09557820	      0.00000000	     -9.30525201	     -7.07439165	    -13.11542303	      3.91237542	     25.49618996	     -0.22792784	      0.00000000	    -24.22920263	      6.88105963	     -5.14568749	    -44.48385831	     -7.85688999	    -13.43818260	     14.76318898	    101.65229371	     83.74949009	      3.27782340	     22.11308121	    107.58444702	    111.83756522
      3.53333330	    -29.64802087	     -5.36969189	     -4.71539907	     -5.59508784	      0.84869254	     -0.99138760	     87.55209393	     11.57566313	     -4.94315494	     80.56758660	     10.27879207	    -24.95144079	      0.00000000	     -9.59319775	     -8.35104428	    -14.63663459	      1.33573058	     16.73227804	      0.31648693	      0.00000000	    -21.22259455	     10.89244535	     -4.50441510	    -39.45748283	     -6.96324781	    -11.59706820	     16.25806286	    101.26535972	     77.96367838	      0.34187422	     22.65547436	    115.24739402	    110.93306514
      3.55000000	    -30.67569624	     -5.13305765	     -4.29609567	     -5.55268075	      0.85648412	     -0.98560171	     84.06232768	     10.11378046	     -5.24746317	     73.11041108	      5.68925414	    -27.85025036	      0.00000000	     -9.05211353	     -8.00506345	    -15.33643699	      1.76399221	      4.62751703	     -2.08745610	      0.00000000	    -18.80266532	     13.57575581	     -6.77764638	    -31.99136937	     -7.26961722	     -8.21825409	     15.31666183	    100.58437274	     67.55236518	     -5.44802473	     21.78989175	    122.30757761	    109.93376906
      3.56666670	    -30.42664684	     -3.54604956	     -3.60842309	     -5.50777805	      0.86160233	     -0.97642033	     78.60009983	      8.08825962	     -5.07441201	     68.47235616	      1.59750086	    -30.53203253	      0.00000000	     -7.31630222	     -6.75935956	    -14.04413766	      6.74120077	     -8.41250036	     -8.55846851	      0.00000000	    -17.30736547	     14.63439221	    -10.11942550	    -23.81517369	     -7.67850315	     -3.59249596	     14.68274835	     99.06390584	     53.17106071	    -11.48462633	     18.77006570	    126.20056099	    109.01984569
      3.58333330	    -29.25425283	     -1.30710003	     -3.39464274	     -5.46415042	      0.86241157	     -0.96592753	     72.02321468	      6.20125736	     -4.43348108	     66.35405054	      0.15076140	    -31.57901078	      0.00000000	     -4.03293536	     -5.25921213	    -11.77596587	     18.12146674	    -16.93085662	    -15.83732326	      0.00000000	    -17.80289193	     13.81641455	    -10.65377501	    -17.67788576	     -8.24421765	      0.88558134	     20.72769257	     97.05592636	     38.75475412	    -13.56184435	     15.26519810	    123.45192558	    108.80398886
      3.60000000	    -28.14342832	      0.18633360	     -2.93902808	     -5.42490586	      0.85826265	     -0.95648379	     65.73133629	      4.24216841	     -4.75364135	     65.86345514	      3.21597127	    -31.08074678	      0.00000000	      1.62338510	     -4.85807809	     -9.28062017	     35.37909535	    -17.48851247	    -18.42014761	      0.00000000	    -18.39170255	     12.76540400	     -9.16102992	    -12.47108316	     -8.83657761	      3.52702587	     29.85135465	     95.78728637	     27.69507400	    -12.71857447	     12.49717179	    112.00134958	    108.96145657
